{"glyphs":{"0":{"ha":460,"x_min":0,"x_max":0,"o":"m 229 942 b 0 471 72 942 0 732 b 229 0 0 211 50 0 b 460 471 414 0 460 211 b 229 942 460 732 406 942 z m 229 283 b 189 490 207 283 189 375 b 229 697 189 604 207 697 b 271 490 253 697 271 604 b 229 283 271 375 253 283 z "},"1":{"ha":419,"x_min":0,"x_max":0,"o":"m 229 946 b 181 936 211 946 194 943 b 175 933 179 936 176 935 l 174 933 b 26 764 104 894 82 813 b 15 733 19 758 15 747 b 115 638 15 694 46 638 l 117 638 b 136 418 124 560 133 481 l 136 389 b 119 128 136 288 119 197 b 229 1 119 53 140 4 l 235 1 b 347 140 325 1 347 61 b 321 404 347 222 322 325 l 321 411 b 338 744 321 519 338 643 b 229 946 338 857 317 942 z "},"2":{"ha":474,"x_min":0,"x_max":0,"o":"m 297 225 b 296 235 296 228 296 231 b 417 501 296 269 360 339 b 450 694 436 558 450 628 b 393 879 450 765 435 833 b 249 943 356 921 303 943 b 24 722 157 943 60 876 b 10 618 15 689 10 653 b 92 483 10 551 31 493 b 108 482 97 482 103 482 b 189 561 161 482 189 522 b 185 588 189 571 188 579 b 178 635 181 600 178 617 b 242 767 178 693 201 767 l 246 767 b 272 710 264 764 272 743 b 71 268 272 618 208 436 b 17 119 36 226 17 175 l 17 114 l 18 96 b 113 4 19 44 61 4 b 321 -1 197 4 267 -1 b 471 124 422 -1 471 17 l 471 129 b 381 219 468 207 425 219 b 321 217 358 219 336 217 b 297 225 308 217 300 218 z "},"3":{"ha":501,"x_min":0,"x_max":0,"o":"m 461 524 b 475 629 469 550 475 588 b 378 904 475 724 449 843 b 253 946 349 929 301 946 b 60 768 169 946 78 897 b 57 722 58 756 57 740 b 128 576 57 663 71 586 b 150 575 136 575 143 575 b 236 649 203 575 236 611 b 232 671 236 656 235 664 b 221 726 224 690 221 710 b 242 765 221 749 228 765 b 251 763 244 765 247 764 b 299 607 281 751 299 669 b 288 543 299 581 294 556 b 251 525 279 528 267 525 b 197 529 235 525 215 529 b 160 519 183 529 171 526 b 126 440 139 506 126 472 b 158 371 126 413 136 383 b 192 363 169 364 181 363 b 238 367 207 363 224 367 b 260 361 246 367 253 365 b 285 289 276 351 285 321 b 233 186 285 240 267 186 l 228 186 b 206 226 211 189 206 204 b 208 258 206 236 206 246 b 210 271 208 263 210 267 b 115 360 210 318 163 360 b 72 346 101 360 86 356 b 36 239 49 331 36 288 b 244 1 36 136 93 1 l 261 1 b 474 271 414 11 474 160 b 457 358 474 306 468 336 b 385 446 425 421 385 417 b 461 524 385 469 440 467 z "},"4":{"ha":543,"x_min":0,"x_max":0,"o":"m 468 626 b 489 808 472 675 489 746 b 392 944 489 878 469 936 b 372 946 385 946 379 946 b 268 793 290 946 268 879 b 290 544 268 715 286 621 l 290 538 b 246 479 290 500 268 479 b 206 533 225 479 206 497 l 206 542 b 222 789 213 639 222 722 b 124 944 222 888 201 944 l 118 944 b 22 810 44 943 22 900 b 33 663 22 771 26 721 b 36 618 35 649 36 633 b 24 431 36 553 24 485 b 40 358 24 400 28 375 b 142 319 65 328 103 319 b 244 326 178 319 215 326 b 294 290 275 326 294 319 b 292 268 294 285 294 276 b 258 100 279 217 258 153 b 371 0 258 44 283 0 b 392 1 376 0 385 1 b 492 136 471 7 492 67 b 468 319 492 199 475 271 b 460 457 463 361 460 407 b 468 626 460 510 463 567 z "},"5":{"ha":556,"x_min":0,"x_max":0,"o":"m 258 575 b 217 661 229 575 217 618 b 240 742 217 696 225 731 b 285 750 250 749 267 750 b 357 749 307 750 332 749 b 460 835 410 749 460 760 l 460 840 b 318 947 458 935 417 947 b 188 946 283 947 239 946 l 136 946 b 29 736 51 944 29 851 b 43 519 29 667 38 590 b 171 404 50 454 104 404 b 294 339 228 400 268 385 b 313 267 307 317 313 292 b 263 186 313 225 294 189 l 258 186 b 224 225 236 186 224 201 b 231 258 224 235 226 246 b 233 276 232 264 233 269 b 132 364 233 321 182 364 b 79 344 113 364 94 358 b 38 217 54 321 38 272 b 254 1 38 117 93 1 b 288 3 265 1 276 1 b 522 283 461 18 522 154 b 486 449 522 344 508 404 b 258 575 438 546 350 575 z "},"6":{"ha":504,"x_min":0,"x_max":0,"o":"m 379 481 b 336 488 365 486 350 488 b 253 479 306 488 276 479 b 204 528 229 479 213 489 b 196 611 199 551 196 581 b 256 765 196 686 214 765 l 258 765 b 289 714 281 763 289 742 b 274 642 289 692 283 665 b 269 615 271 633 269 625 b 351 536 269 576 299 536 b 367 538 357 536 361 538 b 463 690 440 549 463 618 b 458 743 463 708 461 726 b 258 943 438 894 344 943 b 139 910 214 943 169 931 b 4 465 35 842 4 663 l 4 425 b 242 0 7 213 42 0 l 250 0 b 482 265 415 4 482 139 b 379 481 482 363 443 454 z m 275 175 b 236 265 249 176 236 222 b 268 342 236 304 246 340 l 269 342 b 307 250 294 342 307 294 b 275 175 307 211 297 175 z "},"7":{"ha":525,"x_min":0,"x_max":0,"o":"m 436 929 b 393 938 421 935 407 938 l 354 938 b 171 942 285 938 222 942 b 26 831 81 942 26 925 l 26 814 b 100 718 31 736 63 718 b 197 732 133 718 169 732 b 225 724 208 732 218 729 b 238 683 235 715 238 701 b 157 436 238 618 185 501 b 22 113 100 301 22 192 b 100 13 22 71 43 38 b 160 -1 122 3 143 -1 b 349 363 272 -1 292 182 b 503 828 413 561 503 725 b 436 929 503 875 483 910 z "},"8":{"ha":460,"x_min":0,"x_max":0,"o":"m 229 942 b 0 636 103 942 0 806 b 86 399 0 540 33 454 b 0 224 33 357 0 294 b 229 0 0 100 103 0 b 460 224 357 0 460 100 b 374 399 460 294 425 357 b 460 636 425 454 460 540 b 229 942 460 806 357 942 z m 229 768 b 267 624 250 768 267 704 b 229 479 267 544 250 479 b 192 624 208 479 192 544 b 229 768 192 704 208 768 z m 229 169 b 182 236 203 169 182 199 b 229 303 182 272 203 303 b 276 236 256 303 276 272 b 229 169 276 199 256 169 z "},"9":{"ha":504,"x_min":0,"x_max":0,"o":"m 256 944 b 24 679 90 939 24 806 b 126 464 24 582 63 490 b 169 456 142 458 156 456 b 253 465 201 456 229 465 b 301 417 276 465 293 456 b 308 336 307 394 308 365 b 250 179 308 260 292 179 l 247 179 b 217 231 225 182 217 203 b 232 303 217 253 222 279 b 236 329 235 311 236 319 b 154 408 236 368 207 408 b 139 407 149 408 144 407 b 43 254 65 396 43 326 b 47 201 43 236 44 218 b 247 1 68 50 161 1 b 367 35 292 1 336 14 b 501 490 472 104 501 288 l 501 519 b 264 944 499 731 464 944 z m 235 603 b 197 692 210 603 197 649 b 231 769 197 732 208 769 b 269 679 256 768 269 724 b 236 603 269 640 260 604 z "}," ":{"ha":350,"x_min":0,"x_max":0,"o":""}," ":{"ha":350,"x_min":0,"x_max":0,"o":""},"!":{"ha":376,"x_min":0,"x_max":0,"o":"m 183 942 b 67 815 90 942 67 889 b 93 569 67 743 90 651 l 93 547 b 75 332 93 460 75 386 b 186 238 75 275 97 240 l 194 238 b 304 342 282 238 304 281 b 278 557 304 406 279 488 l 278 568 b 292 813 278 660 292 746 b 183 942 292 890 272 942 z m 194 197 b 96 99 140 197 96 153 b 194 0 96 44 140 0 b 293 99 249 0 293 44 b 194 197 293 153 249 197 z "},"\"":{"ha":539,"x_min":0,"x_max":0,"o":"m 486 1031 b 468 1076 485 1047 478 1063 b 401 1115 453 1097 429 1111 l 386 1115 b 289 1017 332 1114 289 1071 b 360 922 289 972 319 935 b 332 850 346 894 332 869 b 343 824 332 840 335 831 b 374 811 353 815 363 811 b 489 1001 429 811 489 931 l 489 1003 b 486 1031 489 1013 489 1022 z m 256 1031 b 238 1076 253 1047 247 1063 b 171 1115 222 1097 199 1111 l 156 1115 b 58 1017 101 1114 58 1071 b 129 922 58 972 89 935 b 101 850 115 894 101 869 b 113 824 101 840 104 831 b 143 811 122 815 132 811 b 258 1001 199 811 258 931 l 258 1003 b 256 1031 258 1013 257 1022 z "},"#":{"ha":797,"x_min":0,"x_max":0,"o":"m 746 642 b 668 750 746 717 717 744 b 561 943 667 858 646 939 l 556 943 b 443 739 465 943 443 853 l 443 729 l 426 729 b 396 728 417 729 406 728 b 367 729 386 728 376 729 l 367 742 b 260 943 367 854 347 939 l 254 943 b 142 744 164 943 142 854 b 54 642 89 739 56 714 b 157 529 54 560 97 533 b 165 415 161 489 165 449 b 167 403 167 411 167 407 b 54 300 97 403 54 383 b 153 190 54 224 94 196 b 149 125 150 167 149 144 b 260 -1 149 50 171 1 l 267 -1 b 378 135 354 -1 378 57 b 372 213 378 160 375 186 b 414 215 386 214 401 214 b 456 214 429 215 443 215 b 450 126 453 182 450 153 b 561 -1 450 50 471 1 l 568 -1 b 679 136 657 -1 679 58 b 675 201 679 157 678 179 b 746 300 721 207 746 231 b 653 410 746 383 710 407 b 658 542 653 453 656 497 b 746 642 715 543 746 564 z m 404 388 b 351 389 386 388 369 388 l 351 428 b 357 551 351 468 354 510 b 414 557 376 554 396 556 b 456 556 429 557 443 557 b 468 415 461 506 467 457 l 468 390 b 426 388 454 389 440 388 z "},"$":{"ha":617,"x_min":0,"x_max":0,"o":"m 282 517 b 243 597 254 531 243 563 b 296 703 243 647 268 701 l 299 703 b 324 663 315 703 324 686 b 304 586 324 642 317 613 b 300 567 301 579 300 572 b 385 504 300 535 329 504 b 404 506 392 504 397 504 b 500 614 479 515 500 561 b 494 663 500 629 497 646 b 403 813 481 736 446 785 b 407 872 406 833 407 854 b 308 986 407 940 388 986 b 204 858 225 986 204 931 b 206 828 204 849 206 838 b 171 808 193 822 181 815 b 58 581 93 753 58 660 b 82 479 58 542 67 506 b 346 335 138 383 308 381 b 358 297 354 324 358 310 b 308 236 358 267 339 238 l 304 236 b 269 271 282 236 269 251 b 276 300 269 279 271 290 b 281 315 279 306 281 311 b 179 379 281 350 228 379 b 132 368 163 379 146 375 b 83 261 104 353 83 310 b 213 106 83 200 118 131 b 211 65 211 92 211 78 b 310 -50 211 -4 231 -50 l 313 -50 b 414 78 393 -50 414 6 b 413 114 414 89 414 101 b 556 304 515 150 556 231 b 533 392 556 336 547 367 b 282 517 478 486 350 482 z "},"%":{"ha":956,"x_min":0,"x_max":0,"o":"m 761 490 b 565 269 653 490 565 392 b 761 47 565 147 653 47 b 956 269 868 47 956 147 b 761 490 956 392 868 490 z m 761 188 b 708 269 732 188 708 225 b 761 351 708 314 732 351 b 814 269 790 351 814 314 b 761 188 814 225 790 188 z m 390 676 b 196 899 390 800 303 899 b 0 676 88 899 0 800 b 196 456 0 554 88 456 b 390 676 303 456 390 554 z m 196 596 b 143 676 167 596 143 632 b 196 758 143 722 167 758 b 247 676 225 758 247 722 b 196 596 247 632 225 596 z m 647 908 b 601 918 631 915 615 918 b 382 478 472 918 438 639 b 239 119 332 333 239 207 b 310 26 239 79 258 49 b 361 15 328 18 346 15 b 550 399 488 15 501 267 b 708 815 607 554 708 713 b 647 908 708 857 692 889 z "},"&":{"ha":676,"x_min":0,"x_max":0,"o":"m 607 156 b 549 222 586 178 567 200 b 607 415 586 279 607 346 l 607 429 b 524 511 606 475 568 511 l 518 511 b 435 425 472 510 435 471 l 435 413 b 428 368 435 397 432 382 b 358 467 401 403 378 435 b 463 726 418 550 463 643 b 460 764 463 739 463 751 b 358 893 449 822 413 868 b 283 910 335 904 308 910 b 160 860 239 910 196 893 b 88 688 113 817 88 756 b 108 572 88 650 94 613 b 147 483 118 543 132 514 l 138 474 b 51 274 82 417 51 343 b 75 171 51 238 58 203 b 268 57 113 97 183 57 b 308 60 281 57 294 57 b 422 103 344 65 385 81 b 481 39 442 81 461 60 b 543 11 497 21 521 11 b 601 35 564 11 585 19 b 629 97 621 51 629 75 b 607 156 629 118 622 139 z m 282 182 b 261 178 275 179 268 178 b 201 254 225 178 201 218 b 222 299 201 272 208 290 b 243 304 229 303 236 304 b 310 225 276 304 310 261 b 282 182 310 207 301 190 z m 263 576 b 243 633 249 576 243 601 b 294 781 243 694 264 781 l 297 781 b 317 729 311 778 317 757 b 263 576 317 668 290 578 z "},"'":{"ha":326,"x_min":0,"x_max":0,"o":"m 265 1031 b 247 1076 264 1047 257 1063 b 181 1115 232 1097 208 1111 l 165 1115 b 69 1017 111 1114 69 1071 b 139 922 69 972 99 935 b 111 850 125 894 111 869 b 122 824 111 840 114 831 b 153 811 132 815 142 811 b 269 1001 210 811 269 931 l 269 1003 b 265 1031 268 1013 268 1022 z "},"(":{"ha":407,"x_min":0,"x_max":0,"o":"m 365 986 b 371 1008 369 993 371 1000 b 257 1108 371 1053 314 1108 b 218 1099 244 1108 231 1106 b 53 456 107 1040 53 746 b 182 -137 53 197 96 -57 b 253 -167 204 -158 229 -167 b 374 -67 317 -167 374 -107 b 367 -44 374 -58 372 -50 b 257 460 299 36 257 242 b 365 986 257 651 289 853 z "},")":{"ha":407,"x_min":0,"x_max":0,"o":"m 225 1079 b 154 1108 203 1100 178 1108 b 33 1008 90 1108 33 1049 b 40 986 33 1000 35 992 b 150 482 108 906 150 700 b 42 -44 150 290 118 89 b 36 -67 38 -51 36 -58 b 151 -168 36 -111 93 -168 b 189 -158 164 -168 176 -165 b 354 485 300 -99 354 196 b 225 1079 354 744 311 999 z "},"*":{"ha":504,"x_min":0,"x_max":0,"o":"m 457 718 b 475 769 469 739 475 756 b 382 849 475 807 435 824 b 475 942 436 878 475 903 b 460 986 475 954 471 969 b 399 1026 442 1015 421 1026 b 326 994 376 1026 351 1013 l 326 1004 b 251 1097 326 1061 314 1097 b 172 1011 189 1097 172 1061 l 172 999 b 104 1026 149 1015 125 1026 b 43 986 82 1026 63 1015 b 28 942 32 969 28 956 b 122 849 28 904 68 878 b 28 769 68 824 28 807 b 46 718 28 756 33 739 b 107 672 65 685 86 672 b 181 710 131 672 156 689 b 178 669 179 694 178 681 b 254 606 178 629 193 607 l 261 606 b 335 678 319 606 335 636 b 333 701 335 685 335 693 b 396 672 354 685 376 672 b 457 718 417 672 438 685 z "},"+":{"ha":757,"x_min":0,"x_max":0,"o":"m 488 578 b 496 667 492 610 496 640 b 389 772 496 728 475 769 l 383 772 b 271 665 294 772 271 726 b 282 572 271 636 276 604 b 189 582 249 576 217 582 b 88 471 131 582 89 560 l 88 465 b 194 353 88 376 135 353 b 288 364 224 353 256 358 b 278 271 282 331 278 299 b 389 169 278 213 300 171 l 394 169 b 507 276 483 169 507 217 b 494 371 507 307 501 339 b 583 364 526 367 557 364 b 690 471 644 364 688 383 l 690 476 b 583 589 690 567 644 589 b 488 578 554 589 521 583 z "},",":{"ha":300,"x_min":0,"x_max":0,"o":"m 250 113 b 232 158 247 129 242 144 b 165 197 217 179 193 193 l 150 197 b 53 99 96 196 53 153 b 124 4 53 54 83 17 b 96 -68 110 -24 96 -49 b 107 -94 96 -78 99 -87 b 138 -107 117 -103 126 -107 b 253 83 193 -107 253 13 l 253 85 b 250 113 253 94 251 104 z "},"-":{"ha":701,"x_min":0,"x_max":0,"o":"m 624 471 b 517 581 624 560 576 581 b 364 564 468 581 411 567 l 350 564 b 183 582 292 564 231 582 b 94 471 132 582 96 561 l 94 464 b 189 353 94 376 136 353 b 356 379 243 353 311 378 l 364 379 b 524 368 421 379 478 368 b 624 471 582 368 624 386 z "},"­":{"ha":701,"x_min":0,"x_max":0,"o":"m 624 471 b 517 581 624 560 576 581 b 364 564 468 581 411 567 l 350 564 b 183 582 292 564 231 582 b 94 471 132 582 96 561 l 94 464 b 189 353 94 376 136 353 b 356 379 243 353 311 378 l 364 379 b 524 368 421 379 478 368 b 624 471 582 368 624 386 z "},".":{"ha":364,"x_min":0,"x_max":0,"o":"m 182 197 b 82 99 126 197 82 153 b 182 0 82 44 126 0 b 281 99 236 0 281 44 b 182 197 281 153 236 197 z "},"/":{"ha":654,"x_min":0,"x_max":0,"o":"m 503 908 b 457 918 486 915 471 918 b 238 478 328 918 293 639 b 94 119 188 333 94 207 b 165 26 94 79 114 49 b 217 15 183 18 201 15 b 406 399 343 15 357 267 b 564 815 463 554 564 713 b 503 908 564 857 547 889 z "},":":{"ha":433,"x_min":0,"x_max":0,"o":"m 229 749 b 131 650 175 749 131 704 b 229 550 131 594 175 550 b 329 650 285 550 329 594 b 229 749 329 704 285 749 z m 229 390 b 131 292 175 390 131 346 b 229 193 131 238 175 193 b 329 292 285 193 329 238 b 229 390 329 346 285 390 z "},";":{"ha":413,"x_min":0,"x_max":0,"o":"m 204 550 b 303 650 258 550 303 594 b 204 749 303 704 258 749 b 104 650 149 749 104 704 b 204 550 104 594 149 550 z m 301 306 b 282 351 299 322 292 338 b 215 390 267 372 243 386 l 200 390 b 104 292 146 389 104 346 b 174 197 104 247 133 210 b 146 125 161 171 146 146 b 158 99 146 115 150 107 b 188 86 168 90 178 86 b 304 276 244 86 304 206 l 304 278 b 301 306 304 288 303 297 z "},"<":{"ha":506,"x_min":0,"x_max":0,"o":"m 254 507 b 439 690 335 575 439 622 b 410 756 439 710 431 732 b 335 799 383 786 358 799 b 149 661 269 799 208 714 b 0 465 90 610 0 606 b 178 258 0 318 99 332 b 328 142 225 213 272 142 b 411 196 354 142 381 157 b 438 263 431 221 438 242 b 254 446 438 343 311 394 l 253 446 b 239 475 244 453 239 464 b 254 506 239 486 244 497 z "},"=":{"ha":690,"x_min":0,"x_max":0,"o":"m 338 750 b 175 767 281 750 221 767 b 85 656 124 767 88 746 l 85 651 b 179 538 85 561 126 538 b 347 564 235 538 303 563 l 356 564 b 514 553 411 564 468 553 b 615 656 574 553 615 571 b 507 765 615 744 568 765 b 354 750 458 765 401 753 z m 340 386 b 175 404 282 386 222 404 b 85 293 124 404 88 382 l 85 289 b 179 175 85 199 126 175 b 347 201 235 175 303 200 l 356 201 b 514 190 411 201 468 190 b 615 293 574 190 615 208 b 508 403 615 382 568 403 b 354 386 460 403 401 389 z "},">":{"ha":506,"x_min":0,"x_max":0,"o":"m 328 683 b 176 800 279 729 232 800 b 94 746 151 800 124 785 b 68 679 75 721 68 699 b 251 496 68 599 193 547 b 265 467 261 489 265 478 b 251 436 265 456 261 444 b 250 435 251 435 251 435 b 67 251 171 367 67 319 b 96 185 67 231 75 210 b 171 142 121 154 146 142 b 357 281 235 142 296 228 b 504 474 415 332 504 335 l 504 476 b 328 683 504 624 407 610 z "},"?":{"ha":640,"x_min":0,"x_max":0,"o":"m 322 197 b 224 99 268 197 224 153 b 322 0 224 44 268 0 b 421 99 376 0 421 44 b 322 197 421 153 376 197 z m 90 719 b 82 643 85 694 82 669 b 179 481 82 565 110 492 b 196 479 185 479 190 479 b 278 557 247 479 278 519 b 272 585 278 567 276 576 b 260 654 264 604 260 629 b 324 764 260 708 279 764 b 333 763 326 764 331 763 b 376 669 361 758 376 722 b 344 524 376 628 367 578 b 221 290 304 428 221 374 l 221 289 b 318 229 222 247 269 229 b 415 278 364 229 411 246 b 546 563 425 343 497 393 b 560 663 554 593 560 628 b 482 878 560 743 535 828 b 329 939 442 917 386 939 b 90 719 231 939 128 875 z "},"@":{"ha":978,"x_min":0,"x_max":0,"o":"m 892 183 b 850 194 879 190 864 194 b 796 174 831 194 810 188 b 579 92 744 126 672 92 b 454 111 540 92 499 97 b 268 288 349 144 294 225 b 232 474 244 343 232 407 b 242 575 232 507 235 542 b 511 850 269 708 354 850 l 521 850 b 717 726 608 846 674 806 b 764 524 750 669 764 593 b 731 374 764 461 751 404 b 708 357 719 358 711 357 b 703 360 704 357 704 358 b 682 449 699 364 685 383 b 681 478 682 458 681 468 b 689 614 681 522 686 571 l 689 619 b 638 671 689 646 667 668 l 588 674 b 508 700 564 689 538 697 b 490 701 503 700 497 701 b 358 644 443 701 394 681 b 293 506 322 608 299 558 b 292 479 292 497 292 488 b 326 358 292 436 303 393 b 461 274 357 310 407 279 l 478 274 b 565 296 508 274 539 282 b 588 267 572 285 579 275 b 700 217 617 236 654 218 l 711 217 b 858 297 769 217 822 246 b 917 542 896 351 917 453 b 853 792 917 631 893 719 b 528 990 785 915 669 985 l 511 990 b 229 874 403 990 306 950 b 92 600 161 804 114 710 b 79 472 83 558 79 515 b 406 -22 79 261 181 47 b 579 -50 464 -40 522 -50 b 733 -25 632 -50 683 -42 b 904 75 799 -4 857 29 b 926 125 919 89 926 107 b 892 183 926 147 914 169 z m 525 483 b 500 426 522 461 514 440 b 479 415 493 419 486 415 l 476 415 b 457 431 471 415 464 421 b 444 483 449 444 444 463 l 444 492 b 471 549 447 514 457 535 b 492 560 478 556 486 560 l 493 560 b 513 544 499 560 507 554 b 526 497 521 531 526 515 b 525 483 526 493 525 488 z "},"A":{"ha":475,"x_min":0,"x_max":0,"o":"m 419 833 b 51 860 369 975 121 972 b 25 258 -11 757 63 526 b 122 1 -1 76 7 -4 b 193 268 253 8 228 163 b 272 267 158 374 297 393 b 371 3 249 157 188 -7 b 438 321 518 10 449 218 b 419 833 418 515 463 713 z m 232 488 b 226 765 188 486 174 764 b 232 488 278 767 276 488 z "},"B":{"ha":483,"x_min":0,"x_max":0,"o":"m 318 354 b 426 639 375 382 426 500 b 411 769 426 681 422 725 b 203 938 382 885 290 938 b 51 867 143 938 85 913 b 6 678 15 818 6 750 b 32 378 6 563 32 440 l 32 372 b 8 153 31 293 8 218 b 58 31 8 107 19 65 b 189 -6 85 7 135 -6 b 436 115 285 -6 399 33 b 463 224 456 156 463 192 b 335 356 463 308 401 356 b 318 354 329 356 324 354 z m 219 764 b 260 626 246 764 260 694 b 221 497 260 563 247 499 l 219 497 b 178 633 192 497 178 565 b 219 764 178 699 192 764 z m 240 133 b 188 189 204 133 188 161 b 242 253 188 221 207 253 l 250 253 b 297 190 281 249 297 218 b 240 133 297 161 281 133 z "},"C":{"ha":475,"x_min":0,"x_max":0,"o":"m 239 -1 b 463 203 408 -1 463 106 b 411 343 463 265 439 324 b 368 356 397 351 383 356 b 275 268 322 356 275 315 b 276 254 275 263 275 258 b 283 201 281 235 283 217 b 272 175 283 189 281 178 b 264 174 269 174 267 174 b 196 483 218 174 196 332 b 251 763 196 622 215 756 l 254 763 b 274 706 268 763 274 739 b 247 549 274 654 260 581 b 242 522 243 540 242 531 b 324 443 242 483 271 443 b 340 444 329 443 335 443 b 442 644 415 456 442 549 b 438 707 442 665 440 686 b 242 936 418 879 326 936 b 139 907 203 936 167 925 b 3 450 33 838 3 653 l 3 422 b 233 -1 7 208 38 0 z "},"D":{"ha":486,"x_min":0,"x_max":0,"o":"m 83 921 b 22 736 35 890 22 822 b 40 392 22 635 40 507 l 40 356 b 19 132 38 269 19 193 b 33 58 19 104 24 81 b 157 -1 53 17 103 -1 b 319 49 215 -1 279 19 b 474 464 425 128 474 269 b 171 944 474 815 301 944 b 83 921 138 944 107 936 z m 228 218 b 214 239 218 219 214 225 b 231 432 214 267 231 325 l 231 457 b 210 697 226 586 210 661 b 222 726 210 714 214 724 b 229 728 225 728 226 728 b 290 458 268 728 290 590 b 231 218 290 336 272 218 z "},"E":{"ha":501,"x_min":0,"x_max":0,"o":"m 117 443 b 44 356 117 414 76 418 b 28 267 33 333 28 303 b 240 -1 28 156 88 7 l 257 -1 b 465 235 408 -1 465 132 b 429 343 465 285 453 328 b 386 356 415 351 401 356 b 292 267 339 356 292 315 b 293 254 292 263 292 258 b 296 222 296 243 296 232 b 274 183 296 201 290 186 l 267 183 b 214 275 233 183 214 228 b 242 357 214 306 222 338 b 279 368 251 367 264 368 l 299 368 b 343 378 314 368 329 369 b 375 447 365 390 375 418 b 340 526 375 479 363 513 b 311 535 331 532 321 535 b 242 524 288 535 263 524 b 214 539 231 524 221 528 b 203 606 206 553 203 578 b 249 760 203 668 219 749 b 258 763 253 761 256 763 b 281 722 274 763 281 746 b 269 667 281 706 278 686 b 265 644 267 660 265 651 b 353 571 265 607 300 571 b 374 572 360 571 367 571 b 443 715 429 583 443 656 b 440 764 443 733 442 750 b 249 942 422 894 333 942 b 124 900 200 942 153 925 b 26 628 51 839 26 722 b 40 521 26 585 31 547 b 117 443 61 464 117 467 z "},"F":{"ha":483,"x_min":0,"x_max":0,"o":"m 265 64 b 275 115 272 79 275 97 b 231 339 275 193 231 292 b 238 361 231 349 232 357 b 260 369 243 367 251 369 b 339 353 282 369 311 353 b 364 358 347 353 356 354 b 397 439 388 369 397 404 b 376 522 397 474 388 508 b 333 542 364 536 350 542 b 254 526 306 542 275 526 b 238 533 247 526 242 528 b 213 653 224 551 213 603 b 257 761 213 706 225 757 l 263 761 b 301 696 289 761 301 736 b 299 658 301 685 301 672 b 296 629 297 649 296 639 b 383 556 296 590 314 556 l 390 556 b 468 672 456 557 468 610 b 464 754 468 699 465 726 b 263 935 458 889 358 935 b 121 899 207 935 154 921 b 32 658 47 851 32 765 b 40 422 32 588 39 507 l 40 406 b 39 278 40 371 39 325 b 57 82 39 206 42 131 b 161 3 74 26 117 3 b 265 64 204 3 247 25 z "},"G":{"ha":503,"x_min":0,"x_max":0,"o":"m 250 0 b 460 249 419 4 460 114 b 458 286 460 261 458 274 b 481 338 458 310 458 324 b 497 385 492 343 497 363 b 482 444 497 407 492 431 b 371 475 465 467 418 475 b 265 461 328 475 286 469 b 219 385 231 449 219 415 b 232 333 219 363 225 343 b 249 326 236 326 243 326 l 251 326 b 288 290 263 326 276 325 b 290 256 289 281 290 268 b 265 188 290 224 283 190 l 261 188 b 185 483 210 188 185 338 b 253 764 185 625 208 764 l 256 764 b 281 693 274 763 281 731 b 268 611 281 665 276 633 b 263 583 264 603 263 593 b 340 506 263 544 290 506 b 356 507 344 506 350 506 b 454 683 426 517 454 594 b 450 746 454 704 453 725 b 247 943 431 893 335 943 b 132 910 203 943 161 929 b 3 453 31 839 3 656 l 3 424 b 243 0 6 213 53 0 z "},"H":{"ha":507,"x_min":0,"x_max":0,"o":"m 213 268 b 207 299 208 279 207 289 b 256 354 207 333 232 354 b 301 297 279 354 301 336 b 297 265 301 288 300 278 b 264 97 285 214 264 150 b 376 -3 264 42 289 -3 b 397 -1 382 -3 390 -1 b 497 132 476 4 497 64 b 474 315 497 196 481 267 b 465 453 468 357 465 404 b 474 624 465 507 468 564 b 494 806 478 672 494 743 b 397 942 494 875 475 933 b 378 943 390 943 385 943 b 269 783 293 943 269 872 b 296 542 269 706 286 615 b 297 526 296 536 297 532 b 256 471 297 489 276 471 b 210 525 233 471 210 490 b 211 539 210 529 210 533 b 236 769 225 621 236 701 b 131 942 236 868 211 939 l 122 942 b 17 822 44 942 17 903 b 33 678 17 783 22 736 b 50 469 46 606 50 535 b 33 263 50 404 46 335 b 17 118 22 204 17 157 b 122 -1 17 38 44 -1 l 131 -1 b 239 125 214 0 239 57 b 213 268 239 172 226 225 z "},"I":{"ha":239,"x_min":0,"x_max":0,"o":"m 218 413 b 233 740 218 521 233 642 b 126 942 233 854 213 939 l 119 942 b 8 740 31 942 8 853 b 32 414 8 633 29 506 l 32 385 b 15 125 32 285 15 193 b 126 -3 15 49 36 0 l 133 -3 b 244 135 221 -3 244 56 b 218 400 244 217 219 321 z "},"J":{"ha":488,"x_min":0,"x_max":0,"o":"m 479 519 b 240 938 472 733 449 932 l 232 938 b 40 756 85 938 40 842 b 72 638 40 706 54 660 b 135 610 88 618 111 610 b 218 678 176 610 218 636 b 217 688 218 681 217 685 b 199 750 214 711 199 736 b 204 760 199 754 200 758 b 214 761 207 761 210 761 b 285 446 260 761 285 596 b 232 207 285 321 268 207 b 214 253 218 207 214 226 b 239 386 214 294 226 354 b 242 406 242 392 242 399 b 143 494 242 447 200 494 b 125 493 138 494 131 494 b 15 283 49 481 15 382 b 19 225 15 264 17 244 b 235 7 42 63 142 7 b 364 46 285 7 332 22 b 482 410 460 114 482 246 b 479 519 482 444 481 482 z "},"K":{"ha":533,"x_min":0,"x_max":0,"o":"m 382 418 b 481 610 442 450 475 510 b 490 771 483 661 490 718 b 376 942 490 864 469 942 b 276 790 294 942 276 872 b 290 582 276 719 290 639 b 282 528 290 560 288 540 b 256 501 275 510 265 501 b 229 569 242 501 229 522 l 229 574 b 233 761 231 647 233 710 b 129 942 233 881 218 940 l 125 942 b 11 772 35 942 11 874 b 36 414 11 674 33 543 l 36 393 b 18 125 36 290 18 196 b 129 -3 18 49 39 0 l 138 -3 b 247 133 225 -3 247 56 b 235 269 247 175 242 222 l 235 285 b 268 353 235 331 251 353 b 301 294 285 353 300 333 l 301 286 b 289 113 301 228 289 165 b 397 -3 289 46 308 -3 l 406 -3 b 518 138 490 0 518 63 b 457 356 518 215 486 307 b 382 418 438 385 406 411 z "},"L":{"ha":481,"x_min":0,"x_max":0,"o":"m 469 185 b 471 244 471 206 471 225 b 388 356 471 307 460 353 l 381 356 b 293 281 311 356 293 321 b 296 251 293 271 294 261 b 297 228 297 243 297 235 b 263 175 297 190 281 175 b 254 176 260 175 257 175 b 219 333 228 185 219 247 b 236 747 219 456 236 625 b 231 842 236 783 235 817 b 131 932 222 901 176 932 b 33 856 90 932 49 907 b 18 697 21 813 18 757 b 22 510 18 638 21 572 b 24 429 24 482 24 456 l 24 363 b 121 32 24 214 29 92 b 256 -1 153 11 203 -1 b 469 185 356 -1 464 46 z "},"M":{"ha":625,"x_min":0,"x_max":0,"o":"m 224 400 b 258 247 242 400 254 278 b 318 197 264 214 292 197 b 379 246 347 197 375 215 b 407 383 385 283 388 383 l 408 383 b 415 360 414 382 415 374 b 394 193 415 318 399 235 b 390 125 392 168 390 146 b 496 -3 390 47 411 -3 b 618 135 593 -3 618 57 b 590 400 618 218 592 321 l 590 413 b 607 746 590 522 607 646 b 496 942 607 857 586 940 l 490 942 b 424 913 460 942 439 931 b 411 894 418 908 415 901 b 396 853 404 882 400 868 b 317 572 364 746 349 572 b 207 903 275 572 250 843 b 138 942 192 926 169 942 l 135 942 b 21 753 44 942 21 860 b 49 414 21 644 46 510 l 49 388 b 26 111 49 281 26 182 b 138 -3 26 42 49 -3 b 247 136 226 -3 247 56 b 244 197 247 156 246 176 b 218 383 239 251 218 346 b 222 400 218 393 219 399 z "},"N":{"ha":571,"x_min":0,"x_max":0,"o":"m 533 406 b 553 749 533 518 553 646 b 438 942 553 860 531 942 l 433 942 b 325 774 349 940 325 871 b 332 663 325 740 328 701 b 354 424 342 568 354 474 b 346 388 354 401 353 389 l 344 388 b 185 918 299 388 263 844 b 157 936 176 926 167 932 b 140 940 151 939 146 940 b 126 942 136 942 132 942 l 119 942 b 11 750 33 942 11 858 b 38 414 11 642 35 508 l 38 386 b 22 129 38 288 22 197 b 126 -3 22 51 42 1 l 140 -3 b 250 107 229 -3 250 49 b 233 229 250 151 238 200 b 225 314 231 249 225 285 b 236 356 225 336 228 354 l 238 356 b 357 25 276 356 292 86 b 383 7 364 18 372 11 b 404 0 390 4 397 1 b 433 -3 413 -1 422 -3 l 440 -3 b 550 157 529 -3 550 68 b 533 400 550 235 533 328 z "},"O":{"ha":474,"x_min":0,"x_max":0,"o":"m 458 449 b 232 942 457 669 456 942 b 14 435 21 942 14 694 b 247 -3 14 175 25 -3 b 460 336 439 -3 460 179 b 458 449 460 376 458 415 z m 283 499 b 246 243 283 415 283 244 b 207 443 217 243 207 335 l 207 486 b 243 764 208 621 206 764 b 283 525 274 764 283 643 z "},"P":{"ha":488,"x_min":0,"x_max":0,"o":"m 61 868 b 42 374 -36 740 44 472 b 131 -3 38 236 -26 7 b 246 224 222 -7 288 31 b 360 354 228 306 294 324 b 456 771 457 403 525 565 b 61 868 386 976 147 978 z m 251 497 b 250 765 193 493 190 765 b 251 497 303 765 307 503 z "},"Q":{"ha":475,"x_min":0,"x_max":0,"o":"m 233 -3 b 279 1 250 -3 265 -1 b 354 -64 296 -35 317 -64 b 392 -56 365 -64 378 -61 b 463 24 444 -33 463 -6 b 418 122 463 58 439 93 b 446 339 442 186 446 265 b 444 449 446 378 444 415 b 217 942 443 669 440 942 b 0 435 7 942 0 694 b 233 -3 0 175 11 -3 z m 192 486 b 228 764 193 621 192 764 b 269 525 260 764 269 643 l 269 499 b 232 243 269 415 268 244 b 192 461 201 243 192 344 z "},"R":{"ha":506,"x_min":0,"x_max":0,"o":"m 435 322 b 357 378 413 353 386 369 b 456 764 443 436 504 575 b 63 868 397 986 147 978 b 43 374 -33 740 46 472 b 131 -3 39 236 -25 7 b 239 208 219 -7 275 25 l 240 204 b 281 249 218 281 272 292 b 396 -3 296 165 211 -12 b 435 322 564 7 489 251 z m 250 497 b 249 765 193 493 189 765 b 250 497 301 765 306 503 z "},"S":{"ha":521,"x_min":0,"x_max":0,"o":"m 294 297 b 307 249 303 283 307 265 b 260 172 307 211 288 175 l 257 172 b 224 217 235 172 224 190 b 231 254 224 228 225 240 b 233 274 233 261 233 267 b 138 354 233 317 185 354 b 93 340 122 354 107 350 b 49 208 67 321 49 268 b 249 -3 49 110 99 -3 b 278 -1 257 -3 268 -3 b 492 254 435 13 492 140 b 471 367 492 296 485 335 b 233 528 418 488 297 483 b 197 629 207 546 197 586 b 246 763 197 693 219 760 l 247 763 b 271 711 264 763 271 742 b 254 615 271 683 265 647 b 250 590 251 607 250 599 b 331 511 250 551 278 511 b 349 513 336 511 342 511 b 438 646 418 524 438 581 b 432 711 438 667 435 689 b 239 940 410 876 322 940 b 126 896 197 940 157 924 b 22 608 54 826 22 710 b 44 481 22 560 31 515 b 294 297 97 360 260 354 z "},"T":{"ha":481,"x_min":0,"x_max":0,"o":"m 131 701 b 153 513 149 664 153 586 b 150 393 153 467 151 424 b 126 124 146 288 126 193 b 244 -3 126 47 150 0 l 254 -3 b 364 119 342 -3 364 46 b 336 400 364 196 340 299 b 335 501 335 433 335 468 b 374 725 335 600 342 694 b 475 831 413 763 475 735 l 475 843 b 351 942 471 926 418 942 b 242 938 317 942 279 938 l 229 938 b 142 939 197 938 168 939 b 3 836 58 939 3 928 l 3 831 b 131 701 6 685 99 768 z "},"U":{"ha":511,"x_min":0,"x_max":0,"o":"m 460 879 b 368 939 444 918 406 939 b 281 865 329 939 290 915 b 278 821 278 854 278 839 b 300 501 278 733 300 581 l 300 496 b 301 394 300 468 301 432 b 261 239 301 318 296 239 b 219 440 225 239 219 332 l 219 483 b 235 776 221 551 235 681 b 222 882 235 822 232 861 b 133 938 206 918 169 938 b 40 879 97 938 60 918 b 17 678 21 840 17 761 b 22 432 17 586 22 489 b 263 -7 22 171 33 -7 b 485 340 464 -7 485 181 b 483 446 485 378 483 414 b 485 599 483 481 485 538 b 460 879 485 704 481 825 z "},"V":{"ha":542,"x_min":0,"x_max":0,"o":"m 272 -4 b 446 382 485 -4 414 232 b 535 799 476 524 535 688 b 453 931 535 867 514 915 b 418 935 440 933 429 935 b 308 735 358 935 321 886 b 272 399 299 613 311 399 b 235 732 235 400 244 543 b 126 935 226 881 192 935 b 93 931 115 935 106 933 b 4 811 28 917 4 876 b 97 382 4 717 56 569 b 272 -4 131 232 58 -4 z "},"W":{"ha":675,"x_min":0,"x_max":0,"o":"m 165 -3 b 238 26 197 -3 221 7 b 249 46 242 31 246 38 b 264 86 256 57 261 71 b 344 243 294 176 311 243 b 453 36 386 243 410 96 l 453 38 b 524 -3 468 13 490 -3 l 528 -3 b 643 204 622 -3 643 83 b 629 517 643 296 632 406 l 629 550 b 639 793 629 640 639 726 b 536 942 639 883 621 942 l 533 942 b 422 814 451 942 422 888 b 429 743 422 792 425 768 b 447 486 440 688 447 572 b 438 382 447 428 444 383 l 436 382 b 401 535 419 382 407 506 b 342 585 397 568 369 585 b 281 535 314 585 285 567 b 254 397 275 499 274 397 l 253 397 b 242 500 244 399 242 443 b 251 746 242 589 249 711 b 254 799 253 764 254 782 b 140 942 254 885 229 942 l 138 942 b 21 788 43 942 21 875 b 43 539 21 708 40 614 b 46 399 44 489 46 443 b 44 251 46 344 44 296 b 165 -3 44 89 57 -3 z "},"X":{"ha":556,"x_min":0,"x_max":0,"o":"m 436 -1 b 524 100 500 10 524 47 b 446 360 524 167 486 258 b 433 429 435 389 435 411 l 433 436 b 446 501 433 457 439 475 b 515 824 482 629 515 743 b 433 939 515 889 493 932 b 407 940 424 940 415 940 b 303 742 332 940 308 888 b 301 696 303 726 301 710 b 303 601 301 660 303 628 b 279 519 303 551 300 519 b 249 738 249 519 254 613 b 135 940 240 882 197 940 b 94 933 122 940 108 938 b 14 815 35 914 14 872 b 97 501 14 731 63 614 b 114 431 107 471 114 453 b 97 360 111 414 107 390 b 28 101 69 274 28 174 b 94 3 28 54 46 18 b 138 -4 110 -1 125 -4 b 249 196 211 -4 244 65 b 274 354 251 311 256 354 b 279 353 276 354 278 353 b 303 185 300 347 296 299 b 407 -4 310 53 338 -4 b 436 -1 415 -4 425 -3 z "},"Y":{"ha":524,"x_min":0,"x_max":0,"o":"m 368 247 b 367 275 367 257 367 267 b 478 656 367 369 411 463 b 508 810 493 701 508 758 b 413 938 508 872 486 926 b 393 939 406 939 399 939 b 288 742 326 939 288 890 b 289 594 288 694 289 642 b 268 464 289 522 286 465 l 267 464 b 240 739 239 464 244 553 b 126 942 236 879 196 942 b 93 938 115 942 104 940 b 8 813 31 924 8 876 b 76 551 8 739 39 643 b 165 265 135 407 165 338 l 165 261 b 150 108 165 215 150 158 b 264 -3 150 47 172 -1 l 269 -3 b 386 119 364 -3 386 57 b 368 247 386 171 371 225 z "},"Z":{"ha":478,"x_min":0,"x_max":0,"o":"m 32 38 b 124 -4 51 17 78 -4 l 168 -4 b 314 -7 222 -4 272 -7 b 458 113 404 -7 458 10 l 458 115 b 374 229 457 213 417 229 b 310 225 351 229 328 225 b 281 235 297 225 286 226 b 275 254 276 239 275 246 b 319 393 275 290 307 357 b 463 821 375 544 463 710 b 397 929 463 871 444 908 b 340 939 383 935 360 939 l 304 939 b 132 944 236 939 178 944 b 8 831 53 944 8 926 b 90 710 8 729 47 710 b 169 718 119 710 149 718 b 193 710 181 718 189 717 b 199 686 197 704 199 696 b 125 450 199 631 150 515 b -3 125 65 300 -3 204 b 32 38 -3 94 8 65 z "},"[":{"ha":360,"x_min":0,"x_max":0,"o":"m 208 -10 l 208 950 l 256 950 b 360 1054 313 950 360 997 b 256 1158 360 1113 313 1158 l 104 1158 b 0 1054 47 1158 0 1113 l 0 -114 b 104 -218 0 -172 47 -218 l 256 -218 b 360 -114 313 -218 360 -172 b 256 -10 360 -57 313 -10 z "},"\\":{"ha":654,"x_min":0,"x_max":0,"o":"m 418 478 b 199 918 361 639 328 918 b 153 908 185 918 169 915 b 90 814 108 889 90 857 b 250 399 90 713 192 554 b 439 15 299 267 311 15 b 490 26 454 15 471 18 b 561 119 542 49 561 79 b 418 478 561 207 468 332 z "},"]":{"ha":360,"x_min":0,"x_max":0,"o":"m 104 1158 b 0 1054 47 1158 0 1113 b 104 950 0 997 47 950 l 151 950 l 151 -10 l 104 -10 b 0 -114 47 -10 0 -57 b 104 -218 0 -172 47 -218 l 256 -218 b 360 -114 313 -218 360 -172 l 360 1054 b 256 1158 360 1113 313 1158 z "},"^":{"ha":706,"x_min":0,"x_max":0,"o":"m 335 746 b 353 758 339 754 346 758 b 369 746 360 758 367 754 l 371 746 b 506 536 404 664 418 536 b 568 553 522 536 543 540 b 632 632 615 576 632 601 b 533 833 632 688 569 756 b 353 1038 499 911 492 1036 b 172 833 214 1038 207 911 b 74 632 136 756 74 688 b 138 553 74 601 90 576 b 200 536 163 540 183 536 b 335 746 288 536 301 664 z "},"_":{"ha":658,"x_min":0,"x_max":0,"o":"m 318 203 b 154 221 265 203 204 221 b 58 110 100 221 60 200 l 58 106 b 172 -7 58 14 111 -7 b 319 8 222 -7 281 8 b 489 -4 381 8 440 -4 b 588 99 547 -4 588 15 b 481 215 588 194 543 215 b 328 203 436 215 382 206 z "},"a":{"ha":475,"x_min":0,"x_max":0,"o":"m 419 833 b 51 860 369 975 121 972 b 25 258 -11 757 63 526 b 122 1 -1 76 7 -4 b 193 268 253 8 228 163 b 272 267 158 374 297 393 b 371 3 249 157 188 -7 b 438 321 518 10 449 218 b 419 833 418 515 463 713 z m 232 488 b 226 765 188 486 174 764 b 232 488 278 767 276 488 z "},"b":{"ha":483,"x_min":0,"x_max":0,"o":"m 318 354 b 426 639 375 382 426 500 b 411 769 426 681 422 725 b 203 938 382 885 290 938 b 51 867 143 938 85 913 b 6 678 15 818 6 750 b 32 378 6 563 32 440 l 32 372 b 8 153 31 293 8 218 b 58 31 8 107 19 65 b 189 -6 85 7 135 -6 b 436 115 285 -6 399 33 b 463 224 456 156 463 192 b 335 356 463 308 401 356 b 318 354 329 356 324 354 z m 219 764 b 260 626 246 764 260 694 b 221 497 260 563 247 499 l 219 497 b 178 633 192 497 178 565 b 219 764 178 699 192 764 z m 240 133 b 188 189 204 133 188 161 b 242 253 188 221 207 253 l 250 253 b 297 190 281 249 297 218 b 240 133 297 161 281 133 z "},"c":{"ha":475,"x_min":0,"x_max":0,"o":"m 239 -1 b 463 203 408 -1 463 106 b 411 343 463 265 439 324 b 368 356 397 351 383 356 b 275 268 322 356 275 315 b 276 254 275 263 275 258 b 283 201 281 235 283 217 b 272 175 283 189 281 178 b 264 174 269 174 267 174 b 196 483 218 174 196 332 b 251 763 196 622 215 756 l 254 763 b 274 706 268 763 274 739 b 247 549 274 654 260 581 b 242 522 243 540 242 531 b 324 443 242 483 271 443 b 340 444 329 443 335 443 b 442 644 415 456 442 549 b 438 707 442 665 440 686 b 242 936 418 879 326 936 b 139 907 203 936 167 925 b 3 450 33 838 3 653 l 3 422 b 233 -1 7 208 38 0 z "},"d":{"ha":486,"x_min":0,"x_max":0,"o":"m 83 921 b 22 736 35 890 22 822 b 40 392 22 635 40 507 l 40 356 b 19 132 38 269 19 193 b 33 58 19 104 24 81 b 157 -1 53 17 103 -1 b 319 49 215 -1 279 19 b 474 464 425 128 474 269 b 171 944 474 815 301 944 b 83 921 138 944 107 936 z m 228 218 b 214 239 218 219 214 225 b 231 432 214 267 231 325 l 231 457 b 210 697 226 586 210 661 b 222 726 210 714 214 724 b 229 728 225 728 226 728 b 290 458 268 728 290 590 b 231 218 290 336 272 218 z "},"e":{"ha":501,"x_min":0,"x_max":0,"o":"m 117 443 b 44 356 117 414 76 418 b 28 267 33 333 28 303 b 240 -1 28 156 88 7 l 257 -1 b 465 235 408 -1 465 132 b 429 343 465 285 453 328 b 386 356 415 351 401 356 b 292 267 339 356 292 315 b 293 254 292 263 292 258 b 296 222 296 243 296 232 b 274 183 296 201 290 186 l 267 183 b 214 275 233 183 214 228 b 242 357 214 306 222 338 b 279 368 251 367 264 368 l 299 368 b 343 378 314 368 329 369 b 375 447 365 390 375 418 b 340 526 375 479 363 513 b 311 535 331 532 321 535 b 242 524 288 535 263 524 b 214 539 231 524 221 528 b 203 606 206 553 203 578 b 249 760 203 668 219 749 b 258 763 253 761 256 763 b 281 722 274 763 281 746 b 269 667 281 706 278 686 b 265 644 267 660 265 651 b 353 571 265 607 300 571 b 374 572 360 571 367 571 b 443 715 429 583 443 656 b 440 764 443 733 442 750 b 249 942 422 894 333 942 b 124 900 200 942 153 925 b 26 628 51 839 26 722 b 40 521 26 585 31 547 b 117 443 61 464 117 467 z "},"f":{"ha":483,"x_min":0,"x_max":0,"o":"m 265 64 b 275 115 272 79 275 97 b 231 339 275 193 231 292 b 238 361 231 349 232 357 b 260 369 243 367 251 369 b 339 353 282 369 311 353 b 364 358 347 353 356 354 b 397 439 388 369 397 404 b 376 522 397 474 388 508 b 333 542 364 536 350 542 b 254 526 306 542 275 526 b 238 533 247 526 242 528 b 213 653 224 551 213 603 b 257 761 213 706 225 757 l 263 761 b 301 696 289 761 301 736 b 299 658 301 685 301 672 b 296 629 297 649 296 639 b 383 556 296 590 314 556 l 390 556 b 468 672 456 557 468 610 b 464 754 468 699 465 726 b 263 935 458 889 358 935 b 121 899 207 935 154 921 b 32 658 47 851 32 765 b 40 422 32 588 39 507 l 40 406 b 39 278 40 371 39 325 b 57 82 39 206 42 131 b 161 3 74 26 117 3 b 265 64 204 3 247 25 z "},"g":{"ha":503,"x_min":0,"x_max":0,"o":"m 250 0 b 460 249 419 4 460 114 b 458 286 460 261 458 274 b 481 338 458 310 458 324 b 497 385 492 343 497 363 b 482 444 497 407 492 431 b 371 475 465 467 418 475 b 265 461 328 475 286 469 b 219 385 231 449 219 415 b 232 333 219 363 225 343 b 249 326 236 326 243 326 l 251 326 b 288 290 263 326 276 325 b 290 256 289 281 290 268 b 265 188 290 224 283 190 l 261 188 b 185 483 210 188 185 338 b 253 764 185 625 208 764 l 256 764 b 281 693 274 763 281 731 b 268 611 281 665 276 633 b 263 583 264 603 263 593 b 340 506 263 544 290 506 b 356 507 344 506 350 506 b 454 683 426 517 454 594 b 450 746 454 704 453 725 b 247 943 431 893 335 943 b 132 910 203 943 161 929 b 3 453 31 839 3 656 l 3 424 b 243 0 6 213 53 0 z "},"h":{"ha":507,"x_min":0,"x_max":0,"o":"m 213 268 b 207 299 208 279 207 289 b 256 354 207 333 232 354 b 301 297 279 354 301 336 b 297 265 301 288 300 278 b 264 97 285 214 264 150 b 376 -3 264 42 289 -3 b 397 -1 382 -3 390 -1 b 497 132 476 4 497 64 b 474 315 497 196 481 267 b 465 453 468 357 465 404 b 474 624 465 507 468 564 b 494 806 478 672 494 743 b 397 942 494 875 475 933 b 378 943 390 943 385 943 b 269 783 293 943 269 872 b 296 542 269 706 286 615 b 297 526 296 536 297 532 b 256 471 297 489 276 471 b 210 525 233 471 210 490 b 211 539 210 529 210 533 b 236 769 225 621 236 701 b 131 942 236 868 211 939 l 122 942 b 17 822 44 942 17 903 b 33 678 17 783 22 736 b 50 469 46 606 50 535 b 33 263 50 404 46 335 b 17 118 22 204 17 157 b 122 -1 17 38 44 -1 l 131 -1 b 239 125 214 0 239 57 b 213 268 239 172 226 225 z "},"i":{"ha":239,"x_min":0,"x_max":0,"o":"m 218 413 b 233 740 218 521 233 642 b 126 942 233 854 213 939 l 119 942 b 8 740 31 942 8 853 b 32 414 8 633 29 506 l 32 385 b 15 125 32 285 15 193 b 126 -3 15 49 36 0 l 133 -3 b 244 135 221 -3 244 56 b 218 400 244 217 219 321 z "},"j":{"ha":488,"x_min":0,"x_max":0,"o":"m 479 519 b 240 938 472 733 449 932 l 232 938 b 40 756 85 938 40 842 b 72 638 40 706 54 660 b 135 610 88 618 111 610 b 218 678 176 610 218 636 b 217 688 218 681 217 685 b 199 750 214 711 199 736 b 204 760 199 754 200 758 b 214 761 207 761 210 761 b 285 446 260 761 285 596 b 232 207 285 321 268 207 b 214 253 218 207 214 226 b 239 386 214 294 226 354 b 242 406 242 392 242 399 b 143 494 242 447 200 494 b 125 493 138 494 131 494 b 15 283 49 481 15 382 b 19 225 15 264 17 244 b 235 7 42 63 142 7 b 364 46 285 7 332 22 b 482 410 460 114 482 246 b 479 519 482 444 481 482 z "},"k":{"ha":533,"x_min":0,"x_max":0,"o":"m 382 418 b 481 610 442 450 475 510 b 490 771 483 661 490 718 b 376 942 490 864 469 942 b 276 790 294 942 276 872 b 290 582 276 719 290 639 b 282 528 290 560 288 540 b 256 501 275 510 265 501 b 229 569 242 501 229 522 l 229 574 b 233 761 231 647 233 710 b 129 942 233 881 218 940 l 125 942 b 11 772 35 942 11 874 b 36 414 11 674 33 543 l 36 393 b 18 125 36 290 18 196 b 129 -3 18 49 39 0 l 138 -3 b 247 133 225 -3 247 56 b 235 269 247 175 242 222 l 235 285 b 268 353 235 331 251 353 b 301 294 285 353 300 333 l 301 286 b 289 113 301 228 289 165 b 397 -3 289 46 308 -3 l 406 -3 b 518 138 490 0 518 63 b 457 356 518 215 486 307 b 382 418 438 385 406 411 z "},"l":{"ha":481,"x_min":0,"x_max":0,"o":"m 469 185 b 471 244 471 206 471 225 b 388 356 471 307 460 353 l 381 356 b 293 281 311 356 293 321 b 296 251 293 271 294 261 b 297 228 297 243 297 235 b 263 175 297 190 281 175 b 254 176 260 175 257 175 b 219 333 228 185 219 247 b 236 747 219 456 236 625 b 231 842 236 783 235 817 b 131 932 222 901 176 932 b 33 856 90 932 49 907 b 18 697 21 813 18 757 b 22 510 18 638 21 572 b 24 429 24 482 24 456 l 24 363 b 121 32 24 214 29 92 b 256 -1 153 11 203 -1 b 469 185 356 -1 464 46 z "},"m":{"ha":625,"x_min":0,"x_max":0,"o":"m 224 400 b 258 247 242 400 254 278 b 318 197 264 214 292 197 b 379 246 347 197 375 215 b 407 383 385 283 388 383 l 408 383 b 415 360 414 382 415 374 b 394 193 415 318 399 235 b 390 125 392 168 390 146 b 496 -3 390 47 411 -3 b 618 135 593 -3 618 57 b 590 400 618 218 592 321 l 590 413 b 607 746 590 522 607 646 b 496 942 607 857 586 940 l 490 942 b 424 913 460 942 439 931 b 411 894 418 908 415 901 b 396 853 404 882 400 868 b 317 572 364 746 349 572 b 207 903 275 572 250 843 b 138 942 192 926 169 942 l 135 942 b 21 753 44 942 21 860 b 49 414 21 644 46 510 l 49 388 b 26 111 49 281 26 182 b 138 -3 26 42 49 -3 b 247 136 226 -3 247 56 b 244 197 247 156 246 176 b 218 383 239 251 218 346 b 222 400 218 393 219 399 z "},"n":{"ha":571,"x_min":0,"x_max":0,"o":"m 533 406 b 553 749 533 518 553 646 b 438 942 553 860 531 942 l 433 942 b 325 774 349 940 325 871 b 332 663 325 740 328 701 b 354 424 342 568 354 474 b 346 388 354 401 353 389 l 344 388 b 185 918 299 388 263 844 b 157 936 176 926 167 932 b 140 940 151 939 146 940 b 126 942 136 942 132 942 l 119 942 b 11 750 33 942 11 858 b 38 414 11 642 35 508 l 38 386 b 22 129 38 288 22 197 b 126 -3 22 51 42 1 l 140 -3 b 250 107 229 -3 250 49 b 233 229 250 151 238 200 b 225 314 231 249 225 285 b 236 356 225 336 228 354 l 238 356 b 357 25 276 356 292 86 b 383 7 364 18 372 11 b 404 0 390 4 397 1 b 433 -3 413 -1 422 -3 l 440 -3 b 550 157 529 -3 550 68 b 533 400 550 235 533 328 z "},"o":{"ha":474,"x_min":0,"x_max":0,"o":"m 458 449 b 232 942 457 669 456 942 b 14 435 21 942 14 694 b 247 -3 14 175 25 -3 b 460 336 439 -3 460 179 b 458 449 460 376 458 415 z m 283 499 b 246 243 283 415 283 244 b 207 443 217 243 207 335 l 207 486 b 243 764 208 621 206 764 b 283 525 274 764 283 643 z "},"p":{"ha":488,"x_min":0,"x_max":0,"o":"m 61 868 b 42 374 -36 740 44 472 b 131 -3 38 236 -26 7 b 246 224 222 -7 288 31 b 360 354 228 306 294 324 b 456 771 457 403 525 565 b 61 868 386 976 147 978 z m 251 497 b 250 765 193 493 190 765 b 251 497 303 765 307 503 z "},"q":{"ha":475,"x_min":0,"x_max":0,"o":"m 233 -3 b 279 1 250 -3 265 -1 b 354 -64 296 -35 317 -64 b 392 -56 365 -64 378 -61 b 463 24 444 -33 463 -6 b 418 122 463 58 439 93 b 446 339 442 186 446 265 b 444 449 446 378 444 415 b 217 942 443 669 440 942 b 0 435 7 942 0 694 b 233 -3 0 175 11 -3 z m 192 486 b 228 764 193 621 192 764 b 269 525 260 764 269 643 l 269 499 b 232 243 269 415 268 244 b 192 461 201 243 192 344 z "},"r":{"ha":506,"x_min":0,"x_max":0,"o":"m 435 322 b 357 378 413 353 386 369 b 456 764 443 436 504 575 b 63 868 397 986 147 978 b 43 374 -33 740 46 472 b 131 -3 39 236 -25 7 b 239 208 219 -7 275 25 l 240 204 b 281 249 218 281 272 292 b 396 -3 296 165 211 -12 b 435 322 564 7 489 251 z m 250 497 b 249 765 193 493 189 765 b 250 497 301 765 306 503 z "},"s":{"ha":521,"x_min":0,"x_max":0,"o":"m 294 297 b 307 249 303 283 307 265 b 260 172 307 211 288 175 l 257 172 b 224 217 235 172 224 190 b 231 254 224 228 225 240 b 233 274 233 261 233 267 b 138 354 233 317 185 354 b 93 340 122 354 107 350 b 49 208 67 321 49 268 b 249 -3 49 110 99 -3 b 278 -1 257 -3 268 -3 b 492 254 435 13 492 140 b 471 367 492 296 485 335 b 233 528 418 488 297 483 b 197 629 207 546 197 586 b 246 763 197 693 219 760 l 247 763 b 271 711 264 763 271 742 b 254 615 271 683 265 647 b 250 590 251 607 250 599 b 331 511 250 551 278 511 b 349 513 336 511 342 511 b 438 646 418 524 438 581 b 432 711 438 667 435 689 b 239 940 410 876 322 940 b 126 896 197 940 157 924 b 22 608 54 826 22 710 b 44 481 22 560 31 515 b 294 297 97 360 260 354 z "},"t":{"ha":481,"x_min":0,"x_max":0,"o":"m 131 701 b 153 513 149 664 153 586 b 150 393 153 467 151 424 b 126 124 146 288 126 193 b 244 -3 126 47 150 0 l 254 -3 b 364 119 342 -3 364 46 b 336 400 364 196 340 299 b 335 501 335 433 335 468 b 374 725 335 600 342 694 b 475 831 413 763 475 735 l 475 843 b 351 942 471 926 418 942 b 242 938 317 942 279 938 l 229 938 b 142 939 197 938 168 939 b 3 836 58 939 3 928 l 3 831 b 131 701 6 685 99 768 z "},"u":{"ha":511,"x_min":0,"x_max":0,"o":"m 460 879 b 368 939 444 918 406 939 b 281 865 329 939 290 915 b 278 821 278 854 278 839 b 300 501 278 733 300 581 l 300 496 b 301 394 300 468 301 432 b 261 239 301 318 296 239 b 219 440 225 239 219 332 l 219 483 b 235 776 221 551 235 681 b 222 882 235 822 232 861 b 133 938 206 918 169 938 b 40 879 97 938 60 918 b 17 678 21 840 17 761 b 22 432 17 586 22 489 b 263 -7 22 171 33 -7 b 485 340 464 -7 485 181 b 483 446 485 378 483 414 b 485 599 483 481 485 538 b 460 879 485 704 481 825 z "},"v":{"ha":542,"x_min":0,"x_max":0,"o":"m 272 -4 b 446 382 485 -4 414 232 b 535 799 476 524 535 688 b 453 931 535 867 514 915 b 418 935 440 933 429 935 b 308 735 358 935 321 886 b 272 399 299 613 311 399 b 235 732 235 400 244 543 b 126 935 226 881 192 935 b 93 931 115 935 106 933 b 4 811 28 917 4 876 b 97 382 4 717 56 569 b 272 -4 131 232 58 -4 z "},"w":{"ha":675,"x_min":0,"x_max":0,"o":"m 165 -3 b 238 26 197 -3 221 7 b 249 46 242 31 246 38 b 264 86 256 57 261 71 b 344 243 294 176 311 243 b 453 36 386 243 410 96 l 453 38 b 524 -3 468 13 490 -3 l 528 -3 b 643 204 622 -3 643 83 b 629 517 643 296 632 406 l 629 550 b 639 793 629 640 639 726 b 536 942 639 883 621 942 l 533 942 b 422 814 451 942 422 888 b 429 743 422 792 425 768 b 447 486 440 688 447 572 b 438 382 447 428 444 383 l 436 382 b 401 535 419 382 407 506 b 342 585 397 568 369 585 b 281 535 314 585 285 567 b 254 397 275 499 274 397 l 253 397 b 242 500 244 399 242 443 b 251 746 242 589 249 711 b 254 799 253 764 254 782 b 140 942 254 885 229 942 l 138 942 b 21 788 43 942 21 875 b 43 539 21 708 40 614 b 46 399 44 489 46 443 b 44 251 46 344 44 296 b 165 -3 44 89 57 -3 z "},"x":{"ha":556,"x_min":0,"x_max":0,"o":"m 436 -1 b 524 100 500 10 524 47 b 446 360 524 167 486 258 b 433 429 435 389 435 411 l 433 436 b 446 501 433 457 439 475 b 515 824 482 629 515 743 b 433 939 515 889 493 932 b 407 940 424 940 415 940 b 303 742 332 940 308 888 b 301 696 303 726 301 710 b 303 601 301 660 303 628 b 279 519 303 551 300 519 b 249 738 249 519 254 613 b 135 940 240 882 197 940 b 94 933 122 940 108 938 b 14 815 35 914 14 872 b 97 501 14 731 63 614 b 114 431 107 471 114 453 b 97 360 111 414 107 390 b 28 101 69 274 28 174 b 94 3 28 54 46 18 b 138 -4 110 -1 125 -4 b 249 196 211 -4 244 65 b 274 354 251 311 256 354 b 279 353 276 354 278 353 b 303 185 300 347 296 299 b 407 -4 310 53 338 -4 b 436 -1 415 -4 425 -3 z "},"y":{"ha":524,"x_min":0,"x_max":0,"o":"m 368 247 b 367 275 367 257 367 267 b 478 656 367 369 411 463 b 508 810 493 701 508 758 b 413 938 508 872 486 926 b 393 939 406 939 399 939 b 288 742 326 939 288 890 b 289 594 288 694 289 642 b 268 464 289 522 286 465 l 267 464 b 240 739 239 464 244 553 b 126 942 236 879 196 942 b 93 938 115 942 104 940 b 8 813 31 924 8 876 b 76 551 8 739 39 643 b 165 265 135 407 165 338 l 165 261 b 150 108 165 215 150 158 b 264 -3 150 47 172 -1 l 269 -3 b 386 119 364 -3 386 57 b 368 247 386 171 371 225 z "},"z":{"ha":478,"x_min":0,"x_max":0,"o":"m 32 38 b 124 -4 51 17 78 -4 l 168 -4 b 314 -7 222 -4 272 -7 b 458 113 404 -7 458 10 l 458 115 b 374 229 457 213 417 229 b 310 225 351 229 328 225 b 281 235 297 225 286 226 b 275 254 276 239 275 246 b 319 393 275 290 307 357 b 463 821 375 544 463 710 b 397 929 463 871 444 908 b 340 939 383 935 360 939 l 304 939 b 132 944 236 939 178 944 b 8 831 53 944 8 926 b 90 710 8 729 47 710 b 169 718 119 710 149 718 b 193 710 181 718 189 717 b 199 686 197 704 199 696 b 125 450 199 631 150 515 b -3 125 65 300 -3 204 b 32 38 -3 94 8 65 z "},"{":{"ha":432,"x_min":0,"x_max":0,"o":"m 346 -24 b 343 -22 344 -24 344 -22 b 338 13 342 -19 339 -10 l 338 36 b 340 111 338 58 339 85 b 344 207 342 142 344 174 b 331 340 344 251 340 296 b 268 468 318 389 297 432 b 318 583 292 500 308 539 b 331 708 328 624 331 667 b 326 807 331 742 328 775 b 324 886 325 835 324 863 l 324 913 b 331 950 325 936 329 947 b 333 951 332 950 332 951 b 415 1053 382 963 415 1006 b 413 1075 415 1060 414 1068 b 311 1157 401 1124 358 1157 b 288 1154 303 1157 296 1156 b 124 986 203 1136 144 1076 b 115 888 117 954 115 922 b 118 794 115 857 117 825 b 121 706 119 760 121 731 b 64 564 121 619 108 582 b 1 469 25 547 1 510 l 1 463 b 63 368 1 422 25 385 b 135 210 118 343 135 303 b 132 124 135 186 133 157 b 129 33 131 94 129 64 b 136 -56 129 3 131 -26 b 283 -222 160 -162 229 -206 b 315 -226 294 -225 304 -226 b 414 -154 360 -226 400 -199 b 419 -122 418 -143 419 -132 b 346 -24 419 -78 390 -37 z "},"|":{"ha":374,"x_min":0,"x_max":0,"o":"m 178 943 b 65 742 88 943 65 854 b 89 415 65 635 86 507 l 89 386 b 72 126 89 286 72 194 b 183 -1 72 50 93 1 l 189 -1 b 301 135 278 -1 301 57 b 274 401 301 218 275 322 l 274 408 b 290 743 274 518 290 642 b 183 943 290 856 269 939 z "},"}":{"ha":432,"x_min":0,"x_max":0,"o":"m 368 563 b 296 725 313 588 296 629 b 299 806 296 749 297 775 b 303 897 301 836 303 867 b 294 986 303 928 301 958 b 147 1153 272 1093 203 1135 b 117 1157 138 1156 128 1157 b 17 1083 72 1157 32 1129 b 13 1053 14 1074 13 1064 b 86 953 13 1008 40 968 l 88 953 b 94 918 89 950 93 940 l 94 901 b 92 818 94 876 93 849 b 88 717 90 786 88 751 b 101 590 88 675 90 632 b 164 463 114 540 135 499 b 114 347 140 429 124 392 b 101 226 104 308 101 267 b 106 124 101 192 104 156 b 108 47 107 97 108 71 b 107 18 108 38 108 28 b 101 -21 106 -6 103 -17 l 99 -21 b 17 -122 50 -32 17 -75 b 19 -146 17 -131 18 -137 b 121 -226 29 -194 72 -226 b 143 -225 128 -226 136 -226 b 307 -57 229 -206 288 -146 b 317 42 314 -26 317 7 b 313 135 317 72 314 104 b 310 221 311 168 310 196 b 367 367 310 308 324 349 b 431 461 406 383 431 421 l 431 468 b 368 563 431 508 407 544 z "},"¢":{"ha":586,"x_min":0,"x_max":0,"o":"m 472 407 b 422 418 457 415 440 418 b 314 340 368 418 314 382 b 315 329 314 336 314 333 b 324 286 319 311 324 297 b 311 267 324 276 321 269 b 299 265 307 265 303 265 b 222 468 249 265 222 368 b 288 658 222 563 244 653 l 294 658 b 317 633 311 658 317 649 b 293 561 317 614 307 586 b 288 538 289 554 288 546 b 385 468 288 504 322 468 b 401 469 390 468 396 469 b 506 597 486 479 506 540 b 503 640 506 613 504 626 b 372 799 489 726 436 776 b 376 869 375 824 376 849 b 278 986 376 939 357 986 b 174 857 196 986 174 931 b 178 796 174 838 175 817 l 157 788 b 0 435 28 722 0 583 b 176 125 0 313 40 171 b 174 74 175 107 174 90 b 274 -43 174 4 193 -42 b 376 85 354 -43 376 13 b 375 119 376 96 376 107 b 532 285 492 144 532 218 b 472 407 532 340 506 390 z "},"£":{"ha":693,"x_min":0,"x_max":0,"o":"m 449 210 b 458 272 456 229 458 250 b 494 271 471 271 483 271 b 596 364 554 271 596 288 b 488 468 596 449 551 468 b 413 463 464 468 439 465 b 382 522 403 483 393 504 b 331 683 346 583 331 640 b 368 763 331 725 346 754 b 388 767 375 765 381 767 b 440 711 414 767 440 747 b 429 668 440 699 436 685 b 424 642 425 660 424 651 b 506 564 424 604 453 564 b 522 565 511 564 517 564 b 606 694 585 574 606 633 b 593 778 606 724 601 754 b 383 942 557 893 469 942 b 214 868 319 942 256 914 b 150 679 175 824 150 757 b 200 478 150 617 165 549 l 204 469 b 164 472 190 471 176 472 b 67 372 108 472 68 453 l 67 368 b 179 269 67 288 118 269 b 254 275 204 269 229 272 b 193 147 249 217 215 186 b 182 93 186 133 182 114 b 244 -3 182 47 201 -3 l 251 -3 b 360 1 290 0 326 1 b 496 -1 413 1 457 -1 b 635 99 588 -1 635 11 b 513 213 635 193 597 213 b 449 210 493 213 472 211 z "},"¥":{"ha":586,"x_min":0,"x_max":0,"o":"m 571 424 b 460 503 571 489 521 503 b 519 657 476 543 496 592 b 550 810 535 703 550 760 b 453 939 550 874 526 928 b 431 940 446 940 438 940 b 329 744 367 940 329 892 b 331 615 329 699 331 653 b 308 513 331 556 326 514 l 306 513 b 282 740 281 513 286 558 b 167 944 278 882 238 944 b 135 940 157 944 146 943 b 50 814 72 925 50 878 b 118 553 50 740 81 644 b 139 503 125 533 132 518 l 131 503 b 40 424 78 503 42 489 l 40 419 b 135 340 40 356 82 340 b 204 346 157 340 181 343 b 207 317 206 338 207 328 b 131 322 179 319 153 322 b 40 244 79 322 42 308 l 40 240 b 133 160 40 176 82 160 b 193 165 153 160 172 163 b 192 136 193 156 192 146 b 306 -1 192 63 214 1 l 308 -1 b 426 150 404 -1 426 74 l 426 172 b 465 171 440 171 453 171 b 571 244 526 171 571 183 b 465 322 571 307 524 322 b 408 319 447 322 428 321 b 410 353 408 332 408 343 b 465 350 429 351 449 350 b 571 424 528 350 571 363 z "},"©":{"ha":542,"x_min":0,"x_max":0,"o":"m 358 590 b 338 596 351 594 344 596 b 292 563 314 596 292 581 l 292 558 b 296 539 293 550 296 543 b 290 532 296 536 294 533 b 285 531 289 532 286 531 b 253 618 263 531 253 575 b 279 697 253 657 261 696 l 282 697 b 292 686 289 697 292 693 b 282 657 292 678 288 667 b 279 647 281 654 279 650 b 319 618 279 633 293 618 l 328 618 b 372 672 364 621 372 647 b 371 689 372 678 372 683 b 276 763 363 743 318 763 b 225 751 257 763 239 758 b 158 603 169 725 158 665 b 271 465 158 542 182 468 l 278 465 b 383 539 358 465 383 504 b 358 590 383 563 372 583 z m 271 890 b 0 619 121 890 0 768 b 271 347 0 469 121 347 b 542 619 419 347 542 469 b 271 890 542 768 419 890 z m 271 435 b 86 619 169 435 86 518 b 271 803 86 719 169 803 b 454 619 372 803 454 719 b 271 435 454 518 372 435 z "},"°":{"ha":358,"x_min":0,"x_max":0,"o":"m 179 949 b 0 744 81 949 0 857 b 179 540 0 632 81 540 b 358 744 278 540 358 632 b 179 949 358 857 278 949 z m 179 669 b 131 744 153 669 131 703 b 179 819 131 786 153 819 b 228 744 206 819 228 786 b 179 669 228 703 206 669 z "},"±":{"ha":488,"x_min":0,"x_max":0,"o":"m 324 672 b 329 743 326 697 329 721 b 243 829 329 793 314 828 l 238 829 b 150 744 168 829 150 793 b 158 668 150 721 154 694 b 83 676 131 672 106 676 b 3 588 36 676 4 658 l 3 582 b 89 493 3 511 40 493 b 163 501 113 493 138 497 b 156 426 158 475 156 449 b 243 346 156 381 172 347 l 249 346 b 338 432 319 346 338 383 b 329 507 338 456 333 482 b 399 501 354 504 378 501 b 485 588 449 501 483 517 l 485 593 b 401 682 485 664 449 682 b 324 672 376 682 350 678 z m 233 331 b 103 344 188 331 140 344 b 32 254 61 344 33 326 l 32 250 b 107 161 32 179 65 161 b 242 182 151 161 206 181 l 246 182 b 376 172 292 182 339 172 b 456 254 422 172 456 188 b 369 343 456 326 418 343 b 247 331 331 343 286 332 z "},"×":{"ha":626,"x_min":0,"x_max":0,"o":"m 460 476 b 565 606 517 521 565 558 b 526 683 565 629 554 654 b 442 729 496 717 468 729 b 310 618 392 729 350 675 b 182 725 267 674 231 725 b 100 683 158 725 132 714 b 54 599 68 653 54 625 b 167 467 54 546 111 504 b 58 339 111 425 58 388 b 100 258 58 315 71 289 b 185 213 132 225 160 213 b 318 325 239 213 281 271 b 449 219 363 268 400 219 b 526 258 472 219 497 231 b 572 342 560 289 572 317 b 460 476 572 393 517 435 z "},"÷":{"ha":533,"x_min":0,"x_max":0,"o":"m 269 593 b 368 693 324 593 368 638 b 269 792 368 747 324 792 b 169 693 214 792 169 747 b 269 593 169 638 214 593 z m 258 564 b 92 582 200 564 139 582 b 3 471 40 582 4 561 l 3 467 b 97 353 3 376 44 353 b 265 379 153 353 221 378 l 274 379 b 432 368 329 379 386 368 b 533 471 492 368 533 386 b 426 581 533 560 486 581 b 272 564 378 581 319 567 z m 269 347 b 169 249 214 347 169 303 b 269 149 169 193 214 149 b 368 249 324 149 368 193 b 269 347 368 303 324 347 z "}}}
